<svg
        viewBox="0 0 16 16"
        aria-hidden="true"
        width="32"
        height="32"
        astro-icon="social/instragram"
      >
        <path
          fill="currentColor"
          d="M8,1.3c2.1,0,2.4,0,3.2,0,.8,0,1.2.1,1.5.3.4.1.7.3.9.6s.5.5.6.9c.1.3.3.7.3,1.5,0,.8,0,1.1,0,3.1s0,2.3,0,3.1c0,.7-.1,1.2-.3,1.5-.1.3-.3.6-.6.9s-.5.5-.9.6c-.3.1-.7.3-1.5.3-.9,0-1.1,0-3.2,0s-2.4,0-3.2,0c-.8,0-1.3-.1-1.5-.3-.4-.1-.7-.3-.9-.6s-.5-.5-.6-.9c-.1-.3-.3-.7-.3-1.5,0-.8,0-1.1,0-3.1s0-2.3,0-3.1c0-.7.1-1.2.3-1.5.1-.3.3-.6.6-.9.3-.3.5-.5.9-.6.3-.1.7-.3,1.5-.3.9,0,1.1,0,3.3,0M8,0C5.8,0,5.5,0,4.6,0,3.8,0,3.2.1,2.7.3c-.5.2-.9.5-1.4.9s-.7.9-.9,1.3C.2,3.1,0,3.7,0,4.5c0,.8,0,1.1,0,3.2S0,10.1,0,10.9s.2,1.4.4,1.9c.2.5.5.9.9,1.4s.9.7,1.4.9c.5.2,1.1.3,1.9.3.9,0,1.1,0,3.3,0s2.5,0,3.3,0c.9,0,1.4-.2,1.9-.3.5-.2,1-.5,1.4-.9s.7-.9.9-1.4c.2-.5.3-1.1.4-1.9,0-.8,0-1.1,0-3.2s0-2.4,0-3.2c0-.8-.2-1.4-.4-1.9-.2-.5-.5-1-.9-1.4s-.9-.7-1.4-.9C12.6.1,12.1,0,11.2,0c-.9,0-1.1,0-3.3,0ZM8,3.7c-2.3,0-4.1,1.8-4.1,4s1.8,4,4.1,4,4.1-1.8,4.1-4-1.9-4-4.1-4ZM8,10.3c-1.5,0-2.7-1.1-2.7-2.6s1.2-2.6,2.7-2.6,2.7,1.1,2.7,2.6c0,1.5-1.2,2.6-2.7,2.6ZM13.2,3.6c0,.5-.4.9-.9.9s-.9-.4-.9-.9.4-.9.9-.9.9.4.9.9Z"
        ></path>
      </svg>