<svg
        viewBox="0 0 16 16"
        aria-hidden="true"
        width="32"
        height="32"
        astro-icon="social/linkedin"
      >
        <path
          fill="currentColor"
          d="M12.4,0H3.3C1.4,0,0,1.4,0,3.3v9.1c0,1.8,1.4,3.3,3.3,3.3h9.1c1.8,0,3.3-1.4,3.3-3.3V3.3c0-1.8-1.4-3.3-3.3-3.3ZM5.2,12.4h-2v-7.2h2v7.2ZM4.2,4.4c-.7,0-1.2-.5-1.2-1.2s.5-1.2,1.2-1.2,1.1.6,1.1,1.2-.5,1.1-1.1,1.1ZM13,12.4h-2v-3.6c0-2.2-2.6-2-2.6,0v3.6h-2v-7.2h2v1.2c.9-1.7,4.6-1.8,4.6,1.6v4.4Z"
        ></path>
      </svg>