<?xml version="1.0" encoding="utf-8"?>
<!-- Generator: Adobe Illustrator 24.2.0, SVG Export Plug-In . SVG Version: 6.00 Build 0)  -->
<svg version="1.1" id="Layer_1" xmlns="http://www.w3.org/2000/svg" xmlns:xlink="http://www.w3.org/1999/xlink" x="0px" y="0px"
	 viewBox="0 0 895.5 559" style="enable-background:new 0 0 895.5 559;" xml:space="preserve">
<style type="text/css">
	.st0{fill:#252627;stroke:#252627;stroke-miterlimit:10;}
	.st1{fill:#2E2F32;stroke:#2E2F32;stroke-miterlimit:10;}
	.st2{fill:#2E2F32;}
</style>
<path class="st0" d="M0,0v559h113.6c48.3-143,176.9-245.3,327.9-245.3h2.9v-0.1c172.9-1.5,315.8-137,341.4-313.6H0z"/>
<path class="st1" d="M444.4,313.6L444.4,313.6l-2.9,0.1c-151,0-279.6,102.3-327.9,245.3h781.9V0H785.8
	C760.2,176.7,617.3,312.1,444.4,313.6z"/>
<path class="st2" d="M410.6,291c-0.1-1.8-0.5-3.5-1.4-5.1L389.7,252c-0.8-1.3-2-1.3-2.7,0l-43.3,75c-0.8,1.3-0.1,2.4,1.4,2.4h48.8
	c1.7-0.1,3.2-1,4.2-2.4l11.3-19.6c0.8-1.6,1.3-3.3,1.4-5.1L410.6,291z M387.8,268.4c-1.2,0.1-2.2-0.9-2.3-2.1c0-0.2,0-0.4,0.1-0.6
	l2.1-10.7c0.3-1.5,1.1-1.6,1.9-0.3l6.5,11.3c0.8,1.3,0.1,2.4-1.4,2.4L387.8,268.4z"/>
<path class="st2" d="M468.1,301c0-1.5-1.2-2.7-2.7-2.7h-3.2c-1.4,0-2.8-0.2-4.2-0.7c-0.8-0.4-1.5-3.5-1.5-5v-31.1c0-1.5,0-2.8,0-2.8
	s0-0.5,0-0.9c0.5-1.3,1.2-2.5,2-3.6l10.8-15.8c0.9-1.5,1.5-3.2,1.5-5V194c0-1.1,0-2.2,0.2-3.2c0.1-0.3,1.3,1.4,2,2.6l24,41.6
	c0.8,1.3,1.4,2.5,1.5,2.7c0,0.4,0,0.8,0,1.2c-0.5,1.3-1.2,2.5-2,3.6l-13.7,20.1c-0.9,1.5-1.5,3.2-1.5,5v25c0,1.4-0.2,2.8-0.7,4.2
	c-0.4,0.8-3.5,1.5-5,1.5h-3.4c-1.5,0-2.7,1.2-2.7,2.7v25.6c0,1.5,1.2,2.7,2.7,2.7h78.2c1.5,0,2.1-1.1,1.4-2.4l-79.6-138.1
	c-0.8-1.3-2-1.3-2.7,0l-56,97c-0.8,1.6-1.3,3.3-1.4,5.1v11.3c0.1,1.8,0.5,3.5,1.4,5.1l11.3,19.6c0.9,1.4,2.4,2.3,4.1,2.4h36.6
	c1.5,0,2.7-1.2,2.7-2.7L468.1,301L468.1,301z"/>
</svg>
