<svg xmlns="http://www.w3.org/2000/svg" xmlns:xlink="http://www.w3.org/1999/xlink" viewBox="0 0 84.2 57"><defs><linearGradient id="a" x1="40.44" y1="63.51" x2="60.4" y2="-21.05" gradientUnits="userSpaceOnUse"><stop offset="0" stop-color="#66cbea"/><stop offset="0.1" stop-color="#61c9e8"/><stop offset="0.23" stop-color="#51c3e2"/><stop offset="0.37" stop-color="#38b9d8"/><stop offset="0.52" stop-color="#14accb"/><stop offset="0.6" stop-color="#00a4c3"/></linearGradient></defs><path d="M27.12,41.53a4.79,4.79,0,0,0-.55-2.05L18.68,25.81a.58.58,0,0,0-1.1,0L.13,56.05c-.3.52-.06,1,.55,1H20.37a2.13,2.13,0,0,0,1.65-1l4.55-7.89a4.79,4.79,0,0,0,.55-2.06Zm-9.2-9.13A.88.88,0,0,1,17,31.32L17.87,27c.12-.59.46-.65.77-.12l2.62,4.54c.3.52,0,.95-.55.95Zm32.4,23.5a1.11,1.11,0,0,1-1.1,1.1H34.45a2.13,2.13,0,0,1-1.65-1l-4.56-7.89a4.94,4.94,0,0,1-.55-2.06V41.54a4.89,4.89,0,0,1,.55-2L50.83.37a.58.58,0,0,1,1.1,0L84.07,56.05c.3.52.06,1-.55,1H52a1.1,1.1,0,0,1-1.1-1.1V45.59a1.1,1.1,0,0,1,1.1-1.1h1.39c.6,0,1.87-.27,2-.6a5.3,5.3,0,0,0,.26-1.69V32.1a4.19,4.19,0,0,1,.62-2L61.81,22a6.58,6.58,0,0,0,.8-1.45,2.61,2.61,0,0,0,0-.5c0-.07-.3-.55-.6-1.07L52.33,2.22C52,1.69,51.55,1,51.51,1.15a7.93,7.93,0,0,0-.07,1.31V18.34a4.23,4.23,0,0,1-.62,2l-4.35,6.36a7,7,0,0,0-.8,1.44,2.41,2.41,0,0,1,0,.37V42.2c0,.61.27,1.87.59,2a5.1,5.1,0,0,0,1.69.27h1.29a1.1,1.1,0,0,1,1.1,1.1Z" fill="url(#a)"/></svg>